# xmcd CD database file
#
# Track frame offsets:
#	150
#	20855
#	38048
#	54588
#	70435
#	89527
#	106983
#	130054
#	154532
#	171090
#	190594
#	206637
#	229467
#	250383
#	269686
#
# Disc length: 4416 seconds
#
# Revision: 0
# Processed by: cddbd v1.5.1PL0 Copyright (c) Steve Scherf et al.
# Submitted via: CDex 1.51
#
DISCID=da113e0f
DTITLE=Vybe Music - Vybe Music Sampler 0002
DYEAR=1900
DGENRE=ロック (一般)
TTITLE0=ビンゴ
TTITLE1=Triple Set
TTITLE2=ワイバーン
TTITLE3=Possibility
TTITLE4=Vibration
TTITLE5=Birth Inside Space
TTITLE6=Fanta-Z
TTITLE7=Bring It On - Bring It Out
TTITLE8=Cheevah Walkaz
TTITLE9=Bounce Back
TTITLE10=深遠
TTITLE11=Infinity
TTITLE12=Real
TTITLE13=ヨクキキナ
TTITLE14=Sbk Classics
EXTD=
EXTT0=
EXTT1=
EXTT2=
EXTT3=
EXTT4=
EXTT5=
EXTT6=
EXTT7=
EXTT8=
EXTT9=
EXTT10=
EXTT11=
EXTT12=
EXTT13=
EXTT14=
PLAYORDER=
